<svg width="43" height="43" fill="none" xmlns="http://www.w3.org/2000/svg"><circle cx="21.5" cy="21.5" r="21.5" fill="url(#a)"/><path d="M22.54 32.36c-2.14 0-4.08-.46-5.82-1.38-1.72-.94-3.08-2.23-4.08-3.87-.98-1.66-1.47-3.53-1.47-5.61 0-2.08.49-3.94 1.47-5.58 1-1.66 2.36-2.95 4.08-3.87 1.74-.94 3.69-1.41 5.85-1.41 1.82 0 3.46.32 4.92.96 1.48.64 2.72 1.56 3.72 2.76l-3.12 2.88c-1.42-1.64-3.18-2.46-5.28-2.46-1.3 0-2.46.29-3.48.87a6.078 6.078 0 0 0-2.4 2.37c-.56 1.02-.84 2.18-.84 3.48 0 1.3.28 2.46.84 3.48a6.288 6.288 0 0 0 2.4 2.4c1.02.56 2.18.84 3.48.84 2.1 0 3.86-.83 5.28-2.49l3.12 2.88c-1 1.22-2.24 2.15-3.72 2.79-1.48.64-3.13.96-4.95.96Z" fill="#fff"/><defs><linearGradient id="a" x1="9.869" y1="5.287" x2="33.131" y2="39.828" gradientUnits="userSpaceOnUse"><stop stop-color="#7F5AF0"/><stop offset="1" stop-color="#2D90ED" stop-opacity=".97"/></linearGradient></defs></svg>