<svg xmlns="http://www.w3.org/2000/svg" width="61" height="61" fill="none"><circle cx="30.5" cy="30.5" r="30.5" fill="url(#a)"/><path fill="#fff" d="M31.72 44.48c-2.853 0-5.44-.613-7.76-1.84-2.293-1.253-4.107-2.973-5.44-5.16-1.307-2.213-1.96-4.707-1.96-7.48 0-2.773.653-5.253 1.96-7.44a13.872 13.872 0 0 1 5.44-5.16c2.32-1.253 4.92-1.88 7.8-1.88 2.427 0 4.613.427 6.56 1.28 1.973.853 3.627 2.08 4.96 3.68l-4.16 3.84c-1.893-2.187-4.24-3.28-7.04-3.28-1.733 0-3.28.387-4.64 1.16a8.103 8.103 0 0 0-3.2 3.16c-.747 1.36-1.12 2.907-1.12 4.64 0 1.733.373 3.28 1.12 4.64a8.383 8.383 0 0 0 3.2 3.2c1.36.747 2.907 1.12 4.64 1.12 2.8 0 5.147-1.107 7.04-3.32l4.16 3.84c-1.333 1.627-2.987 2.867-4.96 3.72-1.973.853-4.173 1.28-6.6 1.28Z"/><defs><linearGradient id="a" x1="14" x2="47" y1="7.5" y2="56.5" gradientUnits="userSpaceOnUse"><stop stop-color="#7F5AF0"/><stop offset="1" stop-color="#2D90ED" stop-opacity=".97"/></linearGradient></defs></svg>