<svg width="43" height="43" viewBox="0 0 43 43" fill="none" xmlns="http://www.w3.org/2000/svg">
<circle cx="21.5" cy="21.5" r="21.5" fill="url(#paint0_linear_273_38)"/>
<path d="M22.54 32.36C20.4 32.36 18.46 31.9 16.72 30.98C15 30.04 13.64 28.75 12.64 27.11C11.66 25.45 11.17 23.58 11.17 21.5C11.17 19.42 11.66 17.56 12.64 15.92C13.64 14.26 15 12.97 16.72 12.05C18.46 11.11 20.41 10.64 22.57 10.64C24.39 10.64 26.03 10.96 27.49 11.6C28.97 12.24 30.21 13.16 31.21 14.36L28.09 17.24C26.67 15.6 24.91 14.78 22.81 14.78C21.51 14.78 20.35 15.07 19.33 15.65C18.31 16.21 17.51 17 16.93 18.02C16.37 19.04 16.09 20.2 16.09 21.5C16.09 22.8 16.37 23.96 16.93 24.98C17.51 26 18.31 26.8 19.33 27.38C20.35 27.94 21.51 28.22 22.81 28.22C24.91 28.22 26.67 27.39 28.09 25.73L31.21 28.61C30.21 29.83 28.97 30.76 27.49 31.4C26.01 32.04 24.36 32.36 22.54 32.36Z" fill="white"/>
<defs>
<linearGradient id="paint0_linear_273_38" x1="9.86885" y1="5.28689" x2="33.1311" y2="39.8279" gradientUnits="userSpaceOnUse">
<stop stop-color="#7F5AF0"/>
<stop offset="1" stop-color="#2D90ED" stop-opacity="0.97"/>
</linearGradient>
</defs>
</svg>
