<svg width="61" height="61" viewBox="0 0 61 61" fill="none" xmlns="http://www.w3.org/2000/svg">
<circle cx="30.5" cy="30.5" r="30.5" fill="url(#paint0_linear_207_12)"/>
<path d="M31.72 44.48C28.8667 44.48 26.28 43.8667 23.96 42.64C21.6667 41.3867 19.8533 39.6667 18.52 37.48C17.2133 35.2667 16.56 32.7733 16.56 30C16.56 27.2267 17.2133 24.7467 18.52 22.56C19.8533 20.3467 21.6667 18.6267 23.96 17.4C26.28 16.1467 28.88 15.52 31.76 15.52C34.1867 15.52 36.3733 15.9467 38.32 16.8C40.2933 17.6533 41.9467 18.88 43.28 20.48L39.12 24.32C37.2267 22.1333 34.88 21.04 32.08 21.04C30.3467 21.04 28.8 21.4267 27.44 22.2C26.08 22.9467 25.0133 24 24.24 25.36C23.4933 26.72 23.12 28.2667 23.12 30C23.12 31.7333 23.4933 33.28 24.24 34.64C25.0133 36 26.08 37.0667 27.44 37.84C28.8 38.5867 30.3467 38.96 32.08 38.96C34.88 38.96 37.2267 37.8533 39.12 35.64L43.28 39.48C41.9467 41.1067 40.2933 42.3467 38.32 43.2C36.3467 44.0533 34.1467 44.48 31.72 44.48Z" fill="white"/>
<defs>
<linearGradient id="paint0_linear_207_12" x1="14" y1="7.5" x2="47" y2="56.5" gradientUnits="userSpaceOnUse">
<stop stop-color="#7F5AF0"/>
<stop offset="1" stop-color="#2D90ED" stop-opacity="0.97"/>
</linearGradient>
</defs>
</svg>
